<?xml version="1.0" standalone="no"?>
<!DOCTYPE svg PUBLIC "-//W3C//DTD SVG 20010904//EN"
 "http://www.w3.org/TR/2001/REC-SVG-20010904/DTD/svg10.dtd">
<svg version="1.0" xmlns="http://www.w3.org/2000/svg"
 width="370.000000pt" height="370.000000pt" viewBox="0 0 370.000000 370.000000"
 preserveAspectRatio="xMidYMid meet">
<metadata>
Created by potrace 1.14, written by Peter Selinger 2001-2017
</metadata>
<g transform="translate(0.000000,370.000000) scale(0.100000,-0.100000)"
fill="#000000" stroke="none">
<path d="M564 3291 c-45 -21 -98 -94 -109 -152 -24 -132 -27 -189 -21 -369 4
-107 8 -211 10 -230 5 -48 17 -176 21 -225 2 -24 -4 -53 -15 -75 -35 -70 -76
-217 -94 -345 -3 -18 -12 -20 -130 -25 -134 -5 -146 -10 -146 -56 0 -33 40
-44 160 -44 l110 0 0 -32 c1 -18 3 -50 6 -70 l6 -38 -125 0 c-136 0 -157 -7
-157 -55 0 -34 44 -45 181 -45 l119 0 6 -27 c3 -16 12 -48 20 -72 8 -25 14
-46 14 -47 0 -1 -67 -3 -148 -3 -82 0 -156 -3 -165 -7 -26 -10 -33 -51 -12
-74 10 -11 20 -19 24 -18 3 0 83 0 177 -1 l170 -1 23 -47 c108 -224 349 -454
604 -577 175 -84 262 -112 467 -151 141 -27 451 -27 590 0 170 33 237 52 366
106 130 54 211 99 319 178 152 112 295 272 371 417 l39 74 165 0 c182 0 213 8
218 52 5 42 -21 48 -189 49 -138 0 -150 1 -144 17 3 9 13 43 22 75 l16 57 121
0 c130 0 169 11 174 47 6 44 -20 53 -154 53 l-125 0 5 38 c3 20 5 52 5 70 l1
32 113 0 c119 0 157 12 157 48 -1 42 -15 47 -147 52 l-127 5 -12 78 c-14 86
-44 194 -79 277 -23 55 -24 75 -10 190 26 207 27 616 1 709 -24 87 -56 134
-109 160 -51 25 -84 26 -148 7 -95 -29 -176 -79 -382 -235 l-138 -104 -102 31
c-102 30 -141 39 -207 49 -19 2 -62 8 -95 13 -65 9 -440 6 -490 -5 -16 -3 -64
-12 -105 -20 -63 -12 -114 -26 -232 -62 -11 -3 -71 35 -175 113 -175 131 -281
196 -359 219 -68 20 -100 19 -150 -4z m189 -122 c54 -26 250 -158 267 -179 3
-3 32 -27 65 -53 33 -25 66 -55 72 -66 7 -11 23 -27 36 -36 22 -14 29 -13 93
11 187 71 341 98 569 98 224 1 380 -26 569 -98 78 -30 68 -33 148 45 51 51
262 209 337 253 227 133 275 68 266 -359 -2 -115 -6 -219 -8 -230 -9 -42 -21
-223 -19 -294 1 -47 10 -95 23 -130 23 -64 59 -206 59 -238 l0 -22 -374 0
c-206 1 -384 -2 -395 -6 -32 -10 -39 -54 -11 -77 21 -17 49 -18 407 -18 l384
0 -5 -57 c-2 -32 -5 -63 -5 -70 -1 -9 -97 -11 -380 -11 -260 0 -386 -4 -400
-12 -28 -14 -27 -55 1 -74 19 -14 74 -16 391 -16 346 0 368 -1 363 -17 -2 -10
-12 -43 -22 -74 l-17 -56 -346 0 c-371 0 -391 -2 -391 -48 0 -51 19 -53 355
-54 171 0 316 0 322 0 8 -1 -4 -29 -28 -68 -168 -278 -475 -495 -824 -582
-267 -67 -581 -63 -850 13 -318 89 -615 307 -774 568 -34 56 -38 68 -23 69 9
0 154 0 322 1 331 0 350 3 350 53 0 46 -20 48 -391 48 l-346 -1 -17 57 c-10
31 -20 64 -22 74 -5 16 17 17 358 17 390 0 410 3 416 50 6 49 -9 51 -419 52
-208 0 -379 3 -380 6 0 4 -3 35 -5 70 l-6 62 379 0 c406 0 425 3 431 50 6 50
-8 51 -420 51 l-379 0 6 47 c8 62 31 151 57 221 17 44 21 77 21 156 -1 55 -4
113 -7 128 -19 101 -28 548 -13 640 24 150 73 175 210 106z"/>
<path d="M1255 2487 c-74 -74 -74 -230 0 -304 21 -21 43 -33 60 -33 59 0 115
91 115 185 0 94 -56 185 -115 185 -17 0 -39 -12 -60 -33z"/>
<path d="M2342 2495 c-78 -66 -82 -237 -7 -312 55 -55 105 -40 154 46 19 35
25 129 11 180 -14 54 -67 111 -103 111 -14 0 -39 -11 -55 -25z"/>
<path d="M1746 1716 c-22 -8 -53 -28 -69 -44 -25 -25 -29 -35 -23 -64 12 -67
111 -106 240 -95 78 6 130 31 152 73 18 33 18 35 0 68 -9 18 -34 41 -54 51
-50 24 -193 31 -246 11z"/>
</g>
</svg>
