<?xml version="1.0" encoding="UTF-8" standalone="no"?>
<svg width="400" height="400" viewBox="0 0 400 400" fill="none" version="1.1" id="svg22"
   xmlns="http://www.w3.org/2000/svg"
   xmlns:svg="http://www.w3.org/2000/svg">
   <ellipse cx="73.2052" cy="273.20505" transform="rotate(-29.999983)" fill="url(#paint0_linear)" id="circle2" style="fill:url(#paint0_linear);stroke-width:1.33188" rx="195.00006" ry="194.99994" />
   <g clip-path="url(#clip0)" id="g8" transform="matrix(1.3318756,0,0,1.3318759,-66.37512,-66.375253)">
      <path d="m 219.326,213.744 v -0.04 c -10.699,-0.214 -19.306,-8.741 -19.306,-19.248 0,10.484 -8.576,18.999 -19.243,19.243 v 0.045 c 10.667,0.244 19.243,8.758 19.243,19.242 -0.004,-10.501 8.607,-19.029 19.306,-19.242 z" fill="#ffffff" id="path4" />
      <path d="m 215.362,117.865 h -29.804 c -3.843,0 -7.362,2.143 -9.123,5.557 L 108.567,254.96 c -1.975,3.832 0.805,8.398 5.12,8.398 h 34.27 c 3.879,0 7.424,-2.183 9.168,-5.642 l 18.229,-36.16 c 2.478,-4.917 2.438,-10.724 -0.111,-15.605 l -13.118,-25.13 c -3.568,-6.833 1.397,-15.014 9.11,-15.005 l 58.517,0.062 c 7.713,0.009 12.66,8.199 9.079,15.023 l -14.764,28.153 c -1.539,2.93 -1.566,6.425 -0.075,9.381 l 19.803,39.286 c 1.744,3.459 5.289,5.642 9.168,5.642 h 34.27 c 4.315,0 7.095,-4.566 5.12,-8.399 L 224.485,123.422 c -1.761,-3.414 -5.284,-5.557 -9.123,-5.557 z" fill="#ffffff" id="path6" />
   </g>
   <defs id="defs20">
      <linearGradient id="paint0_linear" x1="200" y1="53.5898" x2="200" y2="346.41" gradientUnits="userSpaceOnUse" gradientTransform="matrix(1.3318766,0,2.3096217e-8,1.3318756,-193.17015,6.8298541)">
         <stop offset="0.140625" stop-color="#1A9FD5" id="stop10" />
         <stop offset="0.71875" stop-color="#5643F2" id="stop12" />
         <stop offset="0.993058" stop-color="#2233E2" id="stop14" />
      </linearGradient>
      <clipPath id="clip0">
         <rect width="185.085" height="145.489" fill="white" transform="translate(107.918 117.865)" id="rect17" />
      </clipPath>
   </defs>
</svg>
