<svg xmlns="http://www.w3.org/2000/svg" xmlns:xlink="http://www.w3.org/1999/xlink" width="34" height="34" viewBox="0 0 34 34">
    <defs>
        <path id="a" d="M.344.348H27.08v21.75H.344z"/>
        <path id="c" d="M0 .027h24.534v26.806H0z"/>
        <path id="e" d="M.124 0H21.72V21.55H.124z"/>
    </defs>
    <g fill="none" fill-rule="evenodd">
        <path fill="#5493F7" d="M8.745 3.953c-5.481 7.559 15.6 12.82 23.06 11.55 1.31-.223 5.296-.901 2.57-6.346a42.096 42.096 0 0 0-1.346-2.227 41.71 41.71 0 0 0-1.806-2.198c-.18-.188-.363-.371-.55-.55C29.217 2.853 26.187.091 18.426 0c-4.595.1-7.852 1.43-9.681 3.953M15.85 27.64c.972 3.67 4.46 6.472 6.22 6.357.062-.005 6.68-1.264 10.302-7.444 2.82-4.809 1.86-9.452-1.975-9.553-1.38.103-16.399 3.646-14.547 10.64"/>
        <path fill="#FFF" d="M12.593 3.958c-2.31 3.235-10.01 5.514-11.277 5.16l-.008-.016c.052-.097.104-.194.158-.29.438-.788.94-1.54 1.5-2.25.559-.71 1.175-1.379 1.842-2a18.606 18.606 0 0 1 3.62-2.623c1.078-.581 2.182-.619 2.545-.631 3.43.06 1.639 2.624 1.62 2.65M11.7 28.427c.172 1.054-.004 5.218-.235 5.57-.2.01-.615.034-1.818-.594a19.357 19.357 0 0 1-1.824-1.104 18.922 18.922 0 0 1-2.227-1.78 18.254 18.254 0 0 1-1.91-2.074c-.579-.737-1.1-1.516-1.553-2.333a17.098 17.098 0 0 1-1.159-2.554A16.674 16.674 0 0 1 0 17.93a16.744 16.744 0 0 1 1.175-6.16c1.378 1.706 2.972 3.25 4.327 4.975 1.29 1.642 3.065 4.318 3.427 4.89 2.242 3.55 2.6 5.74 2.771 6.792"/>

    </g>
</svg>
